<svg xmlns="http://www.w3.org/2000/svg" preserveAspectRatio="none" xmlns:xlink="http://www.w3.org/1999/xlink" width="100%" height="100%" viewBox="0 0 1948.02 529.253"><defs><style>.a{fill:url(#a);}.b{fill:none;stroke:#fff;stroke-width:3px;}</style><linearGradient id="a" x1="0.109" y1="1.365" x2="0.103" y2="0.082" gradientUnits="objectBoundingBox"><stop offset="0" stop-color="#007ea7"/><stop offset="1" stop-color="#007ea7" stop-opacity="0.231"/></linearGradient></defs><g transform="translate(1948.017 529.261) rotate(180)"><path class="a" d="M1924.5,329.53l-80.42,19c-80.41,19.32-241.25,56.71-402.08,52.26s-321.67-52.52-482.5-85.46S637.83,262.76,477,286.8,155.33,376.71,74.92,410.28L-5.5,443.48l-3,359.6h1930Z" transform="translate(14 -276.12)"/><path class="b" d="M-8.5,802.88l2-305C86.73,464.32,291.42,392,477.85,367.94s372.85-4.46,559.27,28.48,372.85,81,559.28,85.47c89.65,2.14,336.1-31.84,336.1-31.84L1929,802.88Z" transform="translate(14 -276.12)"/><path class="b" d="M1932.5,393.88l-30.71,6c-84.79,17.44-254.34,51-422.32,40.51s-334.33-67-501.25-107.48-334.32-67-503.37-47.46S135.19,368.52,49.86,401L-12.5,423.88l1,379,1942,1Z" transform="translate(14 -276.12)"/><path class="b" d="M1932.5,329.88s-256.25,91.72-485.3,92.91-309.06-37-509.46-64.12-339.38-39.75-506.29-4.09S100,466.58,17.73,506.26L-12.5,520.88v282h1942Z" transform="translate(14 -276.12)"/></g></svg>