<svg xmlns="http://www.w3.org/2000/svg" xmlns:xlink="http://www.w3.org/1999/xlink" width="305" height="80" viewBox="0 0 305 80"><defs><style>.a{fill:url(#a);}.b,.c{fill:#fff;}.c{font-size:22px;font-family:Mulish-Bold, Mulish;font-weight:700;letter-spacing:0.413em;}.d{font-family:Mulish-Light, Mulish;font-weight:300;}.e{filter:url(#d);}.f{filter:url(#b);}</style><linearGradient id="a" x1="0.5" x2="0.5" y2="1" gradientUnits="objectBoundingBox"><stop offset="0" stop-color="#00a8e8"/><stop offset="1" stop-color="#003459"/></linearGradient><filter id="b" x="225" y="0" width="80" height="80" filterUnits="userSpaceOnUse"><feOffset dy="5" input="SourceAlpha"/><feGaussianBlur stdDeviation="5" result="c"/><feFlood flood-color="#003459" flood-opacity="0.498"/><feComposite operator="in" in2="c"/><feComposite in="SourceGraphic"/></filter><filter id="d" x="0" y="12" width="241" height="58" filterUnits="userSpaceOnUse"><feOffset dy="5" input="SourceAlpha"/><feGaussianBlur stdDeviation="5" result="e"/><feFlood flood-color="#003459" flood-opacity="0.498"/><feComposite operator="in" in2="e"/><feComposite in="SourceGraphic"/></filter></defs><g transform="translate(290 60) rotate(180)"><g class="f" transform="matrix(-1, 0, 0, -1, 290, 60)"><circle class="a" cx="25" cy="25" r="25" transform="translate(290 60) rotate(180)"/></g><path class="b" d="M12.362,44.085a4.666,4.666,0,0,1,1.964-3.808c-.544-.826-1.057-1.681-1.527-2.546-.538-.991-1.034-2.019-1.473-3.057s-.838-2.128-1.176-3.213-.631-2.225-.862-3.351a35.019,35.019,0,0,1-.53-3.472,35.493,35.493,0,0,1,0-7.15q.06-.588.14-1.176a4.609,4.609,0,0,1-1.7-.681A32.618,32.618,0,0,0,3.636,41.914h0A25.872,25.872,0,0,1,.264,37.083c-.03-.245-.058-.495-.084-.742a35.493,35.493,0,0,1,0-7.15,35.089,35.089,0,0,1,.53-3.472c.231-1.127.521-2.254.862-3.351s.733-2.166,1.176-3.213S3.682,17.088,4.22,16.1c.423-.778.879-1.547,1.362-2.294a4.655,4.655,0,0,1,8.178-4.443l.35-.074a28.591,28.591,0,0,1,2.833-.432,28.952,28.952,0,0,1,5.835,0,28.6,28.6,0,0,1,2.833.432c.919.188,1.839.425,2.734.7s1.767.6,2.622.96,1.686.762,2.494,1.2,1.594.917,2.353,1.429,1.494,1.062,2.2,1.643q.186.154.371.311A32.621,32.621,0,0,0,12.345,1.812,25.4,25.4,0,0,1,17.86,0q.494.086.983.186c1.127.23,2.254.52,3.351.862s2.166.733,3.213,1.176,2.066.934,3.057,1.472,1.954,1.124,2.883,1.752,1.83,1.3,2.692,2.013,1.695,1.469,2.483,2.257,1.548,1.624,2.257,2.483,1.388,1.767,2.013,2.692q.251.372.494.752A4.651,4.651,0,1,1,39.96,23.88a26.3,26.3,0,0,0-19.351,17.2,4.654,4.654,0,0,1,1.1,3.01c0,.04,0,.079,0,.118.952.083,1.909.125,2.865.125a32.454,32.454,0,0,0,22.74-9.248,25.216,25.216,0,0,1-3.416,5.759c-.86.571-1.753,1.109-2.656,1.6-.991.538-2.019,1.034-3.057,1.473s-2.128.838-3.213,1.176-2.225.631-3.351.862a35.1,35.1,0,0,1-3.472.53,35.543,35.543,0,0,1-3.575.181c-1.176,0-2.362-.059-3.526-.176a4.673,4.673,0,0,1-8.683-2.4Zm6.25-4.4c.159-.434.329-.865.508-1.289.358-.847.762-1.686,1.2-2.494s.917-1.594,1.429-2.353,1.062-1.494,1.643-2.2,1.2-1.383,1.842-2.026,1.325-1.263,2.026-1.842,1.442-1.133,2.2-1.643,1.55-.993,2.353-1.429,1.648-.844,2.494-1.2,1.736-.684,2.622-.96c.469-.146.944-.28,1.423-.4a4.67,4.67,0,0,1-.111-3.221,26.161,26.161,0,0,0-23.845-6.958c0,.015,0,.029,0,.044a4.673,4.673,0,0,1-3.111,4.41,32.639,32.639,0,0,0,5.3,23.308q.222-.021.45-.021A4.665,4.665,0,0,1,18.612,39.685Z" transform="translate(2.04 0)"/><g class="e" transform="matrix(-1, 0, 0, -1, 290, 60)"><text class="c" transform="translate(226 28) rotate(180)"><tspan x="0" y="0">BLUE</tspan><tspan class="d" y="0">FIELDS</tspan></text></g></g></svg>