<svg xmlns="http://www.w3.org/2000/svg" xmlns:xlink="http://www.w3.org/1999/xlink" width="528" height="528" viewBox="0 0 528 528"><defs><style>.a{fill:url(#a);}.b{fill:#fff;}.c{filter:url(#b);}</style><linearGradient id="a" x1="0.5" x2="0.5" y2="1" gradientUnits="objectBoundingBox"><stop offset="0" stop-color="#00a8e8"/><stop offset="1" stop-color="#003459"/></linearGradient><filter id="b" x="0" y="0" width="528" height="528" filterUnits="userSpaceOnUse"><feOffset dy="16" input="SourceAlpha"/><feGaussianBlur stdDeviation="20" result="c"/><feFlood flood-color="#003459" flood-opacity="0.502"/><feComposite operator="in" in2="c"/><feComposite in="SourceGraphic"/></filter></defs><g transform="translate(60 44)"><g class="c" transform="matrix(1, 0, 0, 1, -60, -44)"><circle class="a" cx="204" cy="204" r="204" transform="translate(60 44)"/></g><path class="b" d="M97.853,348.967A36.939,36.939,0,0,1,113.4,318.823c-4.305-6.537-8.363-13.3-12.086-20.154-4.261-7.844-8.183-15.985-11.657-24.2-3.505-8.287-6.637-16.844-9.308-25.43-2.7-8.685-5-17.61-6.821-26.527a277.206,277.206,0,0,1-4.194-27.484,280.954,280.954,0,0,1,0-56.6q.472-4.653,1.106-9.312a36.487,36.487,0,0,1-13.418-5.389A258.2,258.2,0,0,0,28.783,331.782h0v0A204.8,204.8,0,0,1,2.09,293.541c-.239-1.941-.462-3.918-.661-5.876a280.954,280.954,0,0,1,0-56.6,277.761,277.761,0,0,1,4.194-27.484c1.826-8.918,4.12-17.843,6.822-26.527,2.671-8.587,5.8-17.144,9.308-25.431,3.473-8.212,7.395-16.352,11.656-24.2,3.345-6.157,6.96-12.245,10.782-18.158A36.851,36.851,0,0,1,108.929,74.1q1.387-.3,2.773-.586a226.32,226.32,0,0,1,22.427-3.424,229.18,229.18,0,0,1,46.187,0,226.363,226.363,0,0,1,22.427,3.424c7.277,1.489,14.56,3.361,21.646,5.565,7.007,2.179,13.989,4.735,20.752,7.6,6.7,2.834,13.342,6.034,19.744,9.511,6.356,3.453,12.621,7.259,18.623,11.314,5.973,4.035,11.823,8.409,17.388,13q1.474,1.216,2.933,2.463C257.732,58.337,182.65,15.749,97.723,14.34A201.055,201.055,0,0,1,141.378,0q3.91.682,7.781,1.475C158.077,3.3,167,5.594,175.686,8.295c8.587,2.671,17.144,5.8,25.431,9.309,8.21,3.473,16.352,7.395,24.2,11.656,7.789,4.232,15.467,8.9,22.823,13.865,7.319,4.945,14.488,10.306,21.309,15.935,6.8,5.615,13.417,11.626,19.656,17.865s12.251,12.853,17.865,19.657c5.629,6.82,10.99,13.989,15.935,21.308q1.988,2.943,3.908,5.95a36.813,36.813,0,1,1-10.494,65.19,208.212,208.212,0,0,0-153.18,136.115,36.839,36.839,0,0,1,8.693,23.823c0,.313,0,.624-.012.935,7.535.659,15.112.99,22.682.99a256.9,256.9,0,0,0,180.008-73.2,199.606,199.606,0,0,1-27.044,45.589c-6.8,4.519-13.877,8.779-21.024,12.661-7.843,4.261-15.984,8.182-24.2,11.656-8.287,3.505-16.844,6.637-25.43,9.308-8.686,2.7-17.611,5-26.527,6.821a277.808,277.808,0,0,1-27.484,4.194,281.373,281.373,0,0,1-28.3,1.429c-9.309,0-18.7-.468-27.911-1.39a36.992,36.992,0,0,1-68.734-18.989Zm49.477-34.826c1.26-3.438,2.6-6.846,4.023-10.2,2.834-6.7,6.034-13.343,9.511-19.744,3.452-6.356,7.259-12.621,11.313-18.623,4.036-5.973,8.41-11.823,13-17.389s9.487-10.949,14.577-16.039,10.488-10,16.04-14.578,11.416-8.967,17.388-13c6-4.056,12.268-7.862,18.623-11.314,6.4-3.477,13.044-6.677,19.744-9.511,6.763-2.861,13.745-5.416,20.752-7.6,3.71-1.154,7.474-2.217,11.263-3.182a36.971,36.971,0,0,1-.878-25.5A207.089,207.089,0,0,0,113.933,92.387c0,.117,0,.232,0,.35a36.992,36.992,0,0,1-24.624,34.913,258.368,258.368,0,0,0,41.965,184.5q1.759-.168,3.565-.17A36.93,36.93,0,0,1,147.33,314.142Z" transform="translate(20.146 4)"/></g></svg>