<svg xmlns="http://www.w3.org/2000/svg" xmlns:xlink="http://www.w3.org/1999/xlink" width="1270.029" height="1318.096" viewBox="0 0 1270.029 1318.096"><defs><style>.a{opacity:0.75;}.b{fill:url(#a);}.c{fill:none;stroke:#fff;stroke-width:4px;}</style><linearGradient id="a" x1="1.721" y1="1.098" x2="-0.168" y2="0.372" gradientUnits="objectBoundingBox"><stop offset="0" stop-color="#007ea7"/><stop offset="1" stop-color="#007ea7" stop-opacity="0"/></linearGradient></defs><g class="a" transform="translate(636.972 -2062.552)"><path class="b" d="M429.9,208.688c92.923,79.755,235.994,78.127,298.68,141.606,61.948,62.665,44.249,189.622-18.437,269.377-62.686,78.941-169.621,111.494-253.694,114.75S311.168,712.447,228.57,745.814,40.512,871.957-7.424,855.681-46.511,714.888.688,632.692c47.2-81.383,133.484-119.633,139.384-200.2,5.9-81.383-67.848-205.084-62.686-316.579S166.621-93.242,230.045-62.316C294.206-31.391,336.979,128.933,429.9,208.688Z" transform="matrix(0.839, 0.545, -0.545, 0.839, -90.182, 2196.928)"/><path class="c" d="M429.9,208.688c92.923,79.755,235.994,78.127,298.68,141.606,61.948,62.665,44.249,189.622-18.437,269.377-62.686,78.941-169.621,111.494-253.694,114.75S311.168,712.447,228.57,745.814,40.512,871.957-7.424,855.681-46.511,714.888.688,632.692c47.2-81.383,133.484-119.633,139.384-200.2,5.9-81.383-67.848-205.084-62.686-316.579S166.621-93.242,230.045-62.316C294.206-31.391,336.979,128.933,429.9,208.688Z" transform="matrix(0.839, 0.545, -0.545, 0.839, -50.182, 2143.928)"/><path class="c" d="M429.9,208.688c92.923,79.755,235.994,78.127,298.68,141.606,61.948,62.665,44.249,189.622-18.437,269.377-62.686,78.941-169.621,111.494-253.694,114.75S311.168,712.447,228.57,745.814,40.512,871.957-7.424,855.681-46.511,714.888.688,632.692c47.2-81.383,133.484-119.633,139.384-200.2,5.9-81.383-67.848-205.084-62.686-316.579S166.621-93.242,230.045-62.316C294.206-31.391,336.979,128.933,429.9,208.688Z" transform="matrix(0.839, 0.545, -0.545, 0.839, -50.182, 2240.928)"/><path class="c" d="M429.9,208.688c92.923,79.755,235.994,78.127,298.68,141.606,61.948,62.665,44.249,189.622-18.437,269.377-62.686,78.941-169.621,111.494-253.694,114.75S311.168,712.447,228.57,745.814,40.512,871.957-7.424,855.681-46.511,714.888.688,632.692c47.2-81.383,133.484-119.633,139.384-200.2,5.9-81.383-67.848-205.084-62.686-316.579S166.621-93.242,230.045-62.316C294.206-31.391,336.979,128.933,429.9,208.688Z" transform="matrix(0.839, 0.545, -0.545, 0.839, -134.182, 2174.928)"/></g></svg>