<svg xmlns="http://www.w3.org/2000/svg" xmlns:xlink="http://www.w3.org/1999/xlink" width="445.182" height="417.862" viewBox="0 0 445.182 417.862"><defs><style>.a{opacity:0.48;fill:url(#a);}.b{fill:none;stroke:#fff;stroke-width:4px;}</style><linearGradient id="a" x1="1.721" y1="1.098" x2="-0.168" y2="0.372" gradientUnits="objectBoundingBox"><stop offset="0" stop-color="#007ea7" stop-opacity="0"/><stop offset="1" stop-color="#007ea7" stop-opacity="0.631"/></linearGradient></defs><g transform="translate(-1730.044 1512.052) rotate(-133)"><path class="a" d="M182.672,107.759c36.175,31.049,91.873,30.415,116.277,55.128,24.117,24.4,17.226,73.82-7.178,104.869-24.4,30.732-66.034,43.405-98.764,44.672s-56.559-8.554-88.715,4.436-73.211,49.108-91.873,42.771-15.216-54.811,3.158-86.81c18.375-31.683,51.966-46.573,54.263-77.939,2.3-31.682-26.414-79.84-24.4-123.245s34.74-81.424,59.43-69.385C129.845,14.3,146.5,76.71,182.672,107.759Z" transform="matrix(0.839, 0.545, -0.545, 0.839, -420.831, 2086.019)"/><path class="b" d="M182.672,107.759c36.175,31.049,91.873,30.415,116.277,55.128,24.117,24.4,17.226,73.82-7.178,104.869-24.4,30.732-66.034,43.405-98.764,44.672s-56.559-8.554-88.715,4.436-73.211,49.108-91.873,42.771-15.216-54.811,3.158-86.81c18.375-31.683,51.966-46.573,54.263-77.939,2.3-31.682-26.414-79.84-24.4-123.245s34.74-81.424,59.43-69.385C129.845,14.3,146.5,76.71,182.672,107.759Z" transform="matrix(0.839, 0.545, -0.545, 0.839, -405.259, 2065.386)"/><path class="b" d="M182.672,107.759c36.175,31.049,91.873,30.415,116.277,55.128,24.117,24.4,17.226,73.82-7.178,104.869-24.4,30.732-66.034,43.405-98.764,44.672s-56.559-8.554-88.715,4.436-73.211,49.108-91.873,42.771-15.216-54.811,3.158-86.81c18.375-31.683,51.966-46.573,54.263-77.939,2.3-31.682-26.414-79.84-24.4-123.245s34.74-81.424,59.43-69.385C129.845,14.3,146.5,76.71,182.672,107.759Z" transform="matrix(0.839, 0.545, -0.545, 0.839, -405.259, 2103.149)"/><path class="b" d="M182.672,107.759c36.175,31.049,91.873,30.415,116.277,55.128,24.117,24.4,17.226,73.82-7.178,104.869-24.4,30.732-66.034,43.405-98.764,44.672s-56.559-8.554-88.715,4.436-73.211,49.108-91.873,42.771-15.216-54.811,3.158-86.81c18.375-31.683,51.966-46.573,54.263-77.939,2.3-31.682-26.414-79.84-24.4-123.245s34.74-81.424,59.43-69.385C129.845,14.3,146.5,76.71,182.672,107.759Z" transform="matrix(0.839, 0.545, -0.545, 0.839, -437.961, 2077.455)"/></g></svg>