<svg xmlns="http://www.w3.org/2000/svg" xmlns:xlink="http://www.w3.org/1999/xlink" width="938.771" height="920.167" viewBox="0 0 938.771 920.167"><defs><style>.a{opacity:0.43;fill:url(#a);}.b{fill:none;stroke:#fff;stroke-width:4px;}</style><linearGradient id="a" x1="1.721" y1="1.098" x2="-0.168" y2="0.372" gradientUnits="objectBoundingBox"><stop offset="0" stop-color="#007ea7" stop-opacity="0"/><stop offset="1" stop-color="#007ea7" stop-opacity="0.71"/></linearGradient></defs><g transform="translate(1579.898 -1829.559) rotate(22)"><path class="a" d="M334.179,197.134c66.179,56.8,168.073,55.642,212.717,100.85,44.119,44.629,31.514,135.047-13.131,191.847-44.644,56.221-120.8,79.405-180.678,81.724s-103.47-15.649-162.3,8.114S56.86,669.508,22.72,657.916-5.117,557.645,28.5,499.106c33.615-57.96,95.066-85.2,99.268-142.581,4.2-57.96-48.321-146.059-44.644-225.464S146.673-17.9,191.843,4.128C237.538,26.153,268,140.334,334.179,197.134Z" transform="matrix(0.839, 0.545, -0.545, 0.839, -243.835, 2103.132)"/><path class="b" d="M334.179,197.134c66.179,56.8,168.073,55.642,212.717,100.85,44.119,44.629,31.514,135.047-13.131,191.847-44.644,56.221-120.8,79.405-180.678,81.724s-103.47-15.649-162.3,8.114S56.86,669.508,22.72,657.916-5.117,557.645,28.5,499.106c33.615-57.96,95.066-85.2,99.268-142.581,4.2-57.96-48.321-146.059-44.644-225.464S146.673-17.9,191.843,4.128C237.538,26.153,268,140.334,334.179,197.134Z" transform="matrix(0.839, 0.545, -0.545, 0.839, -215.347, 2065.386)"/><path class="b" d="M334.179,197.134c66.179,56.8,168.073,55.642,212.717,100.85,44.119,44.629,31.514,135.047-13.131,191.847-44.644,56.221-120.8,79.405-180.678,81.724s-103.47-15.649-162.3,8.114S56.86,669.508,22.72,657.916-5.117,557.645,28.5,499.106c33.615-57.96,95.066-85.2,99.268-142.581,4.2-57.96-48.321-146.059-44.644-225.464S146.673-17.9,191.843,4.128C237.538,26.153,268,140.334,334.179,197.134Z" transform="matrix(0.839, 0.545, -0.545, 0.839, -215.347, 2134.469)"/><path class="b" d="M334.179,197.134c66.179,56.8,168.073,55.642,212.717,100.85,44.119,44.629,31.514,135.047-13.131,191.847-44.644,56.221-120.8,79.405-180.678,81.724s-103.47-15.649-162.3,8.114S56.86,669.508,22.72,657.916-5.117,557.645,28.5,499.106c33.615-57.96,95.066-85.2,99.268-142.581,4.2-57.96-48.321-146.059-44.644-225.464S146.673-17.9,191.843,4.128C237.538,26.153,268,140.334,334.179,197.134Z" transform="matrix(0.839, 0.545, -0.545, 0.839, -275.171, 2087.464)"/></g></svg>