<svg xmlns="http://www.w3.org/2000/svg" xmlns:xlink="http://www.w3.org/1999/xlink" width="1225.665" height="1253.99" viewBox="0 0 1225.665 1253.99"><defs><style>.a{fill:url(#a);}.b{fill:none;stroke:#fff;stroke-width:3px;}</style><linearGradient id="a" x1="-1.063" y1="-0.07" x2="0.658" y2="0.84" gradientUnits="objectBoundingBox"><stop offset="0" stop-color="#007ea7"/><stop offset="1" stop-color="#007ea7" stop-opacity="0"/></linearGradient></defs><g transform="translate(-1228 -1887.229)"><path class="a" d="M429.9,208.688c92.923,79.755,235.994,78.127,298.68,141.606,61.948,62.665,44.249,189.622-18.437,269.377-62.686,78.941-169.621,111.494-253.694,114.75S311.168,712.447,228.57,745.814,40.512,871.957-7.424,855.681-46.511,714.888.688,632.692c47.2-81.383,133.484-119.633,139.384-200.2,5.9-81.383-67.848-205.084-62.686-316.579S166.621-93.242,230.045-62.316C294.206-31.391,336.979,128.933,429.9,208.688Z" transform="translate(2307.893 2664.86) rotate(152)"/><path class="b" d="M429.9,208.688c92.923,79.755,235.994,78.127,298.68,141.606,61.948,62.665,44.249,189.622-18.437,269.377-62.686,78.941-169.621,111.494-253.694,114.75S311.168,712.447,228.57,745.814,40.512,871.957-7.424,855.681-46.511,714.888.688,632.692c47.2-81.383,133.484-119.633,139.384-200.2,5.9-81.383-67.848-205.084-62.686-316.579S166.621-93.242,230.045-62.316C294.206-31.391,336.979,128.933,429.9,208.688Z" transform="translate(2328.893 2714.86) rotate(152)"/><path class="b" d="M429.9,208.688c92.923,79.755,235.994,78.127,298.68,141.606,61.948,62.665,44.249,189.622-18.437,269.377-62.686,78.941-169.621,111.494-253.694,114.75S311.168,712.447,228.57,745.814,40.512,871.957-7.424,855.681-46.511,714.888.688,632.692c47.2-81.383,133.484-119.633,139.384-200.2,5.9-81.383-67.848-205.084-62.686-316.579S166.621-93.242,230.045-62.316C294.206-31.391,336.979,128.933,429.9,208.688Z" transform="translate(2328.893 2664.86) rotate(152)"/><path class="b" d="M429.9,208.688c92.923,79.755,235.994,78.127,298.68,141.606,61.948,62.665,44.249,189.622-18.437,269.377-62.686,78.941-169.621,111.494-253.694,114.75S311.168,712.447,228.57,745.814,40.512,871.957-7.424,855.681-46.511,714.888.688,632.692c47.2-81.383,133.484-119.633,139.384-200.2,5.9-81.383-67.848-205.084-62.686-316.579S166.621-93.242,230.045-62.316C294.206-31.391,336.979,128.933,429.9,208.688Z" transform="translate(2384.893 2718.86) rotate(152)"/></g></svg>